# xmcd CD database file
#
# Track frame offsets:
#	150
#	15438
#	28690
#	46764
#	61242
#	77811
#	93392
#	109468
#	123167
#	136952
#	150207
#	162136
#	176965
#	193695
#	212477
#	229559
#
# Disc length: 3116 seconds
#
# Revision: 1
# Processed by: cddbd v1.5.2PL0 Copyright (c) Steve Scherf et al.
# Submitted via: CDex 1.70beta2
#
DISCID=c30c2a10
DTITLE=Tanya Tucker - The very best of Tanya Tucker
DYEAR=1900
DGENRE=Country
TTITLE0=Dlta dawn
TTITLE1=San Antonion stroll
TTITLE2=Texas (When i die)
TTITLE3=Just another love
TTITLE4=I won't take less than your love
TTITLE5=Highway robbery
TTITLE6=My arms stay open all night
TTITLE7=Take another run
TTITLE8=If your heart ain'n busy tonight
TTITLE9=What do i do with me (Without you)
TTITLE10=It's a little too late
TTITLE11=What do they know
TTITLE12=Tell me about it
TTITLE13=Two sparrows in a hurricane
TTITLE14=We don't have to do this
TTITLE15=Hangin' in
EXTD=
EXTT0=
EXTT1=
EXTT2=
EXTT3=
EXTT4=
EXTT5=
EXTT6=
EXTT7=
EXTT8=
EXTT9=
EXTT10=
EXTT11=
EXTT12=
EXTT13=
EXTT14=
EXTT15=
PLAYORDER=
